<mxfile host="Electron" agent="Mozilla/5.0 (Windows NT 10.0; Win64; x64) AppleWebKit/537.36 (KHTML, like Gecko) draw.io/24.7.5 Chrome/126.0.6478.183 Electron/31.3.0 Safari/537.36" version="24.7.5">
  <diagram id="prtHgNgQTEPvFCAcTncT" name="Page-1">
    <mxGraphModel dx="2210" dy="797" grid="1" gridSize="10" guides="1" tooltips="1" connect="1" arrows="1" fold="1" page="1" pageScale="1" pageWidth="827" pageHeight="1169" math="0" shadow="0">
      <root>
        <mxCell id="0" />
        <mxCell id="1" parent="0" />
        <mxCell id="qxSMUEniD4FXr3O8-UIm-26" style="edgeStyle=orthogonalEdgeStyle;rounded=0;orthogonalLoop=1;jettySize=auto;html=1;entryX=0.5;entryY=0;entryDx=0;entryDy=0;dashed=1;" edge="1" parent="1" source="dNxyNK7c78bLwvsdeMH5-12" target="qxSMUEniD4FXr3O8-UIm-23">
          <mxGeometry relative="1" as="geometry" />
        </mxCell>
        <UserObject label="KernelStack&lt;br&gt;&lt;i style=&quot;color: gray&quot;&gt;struct: [u8;kernel&lt;/i&gt;&lt;i style=&quot;color: gray;&quot;&gt;_stack&lt;/i&gt;&lt;i style=&quot;color: gray&quot;&gt;_size]&lt;/i&gt;&lt;br&gt;内核栈" name="Tessa Miller" position="CFO" location="Office 1" email="me@example.com" placeholders="1" link="https://www.draw.io" id="dNxyNK7c78bLwvsdeMH5-12">
          <mxCell style="label;whiteSpace=wrap;html=1;rounded=0;glass=0;treeMoving=1;treeFolding=1;" parent="1" vertex="1">
            <mxGeometry x="145" y="270" width="230" height="70" as="geometry" />
          </mxCell>
        </UserObject>
        <mxCell id="dNxyNK7c78bLwvsdeMH5-13" value="" style="endArrow=blockThin;endFill=1;fontSize=11;edgeStyle=elbowEdgeStyle;elbow=vertical;rounded=0;" parent="1" source="dNxyNK7c78bLwvsdeMH5-12" target="dNxyNK7c78bLwvsdeMH5-14" edge="1">
          <mxGeometry relative="1" as="geometry" />
        </mxCell>
        <UserObject label="get_sp()&lt;br&gt;&lt;i style=&quot;color: gray&quot;&gt;method -&amp;gt; 指针&lt;/i&gt;&lt;br&gt;获得内核栈栈顶指针" name="Edward Morrison" position="Brand Manager" location="Office 2" email="me@example.com" placeholders="1" link="https://www.draw.io" id="dNxyNK7c78bLwvsdeMH5-14">
          <mxCell style="label;whiteSpace=wrap;html=1;rounded=0;glass=0;" parent="1" vertex="1">
            <mxGeometry x="-90" y="400" width="190" height="80" as="geometry" />
          </mxCell>
        </UserObject>
        <mxCell id="dNxyNK7c78bLwvsdeMH5-17" value="" style="endArrow=blockThin;endFill=1;fontSize=11;edgeStyle=elbowEdgeStyle;elbow=vertical;rounded=0;" parent="1" source="dNxyNK7c78bLwvsdeMH5-12" target="dNxyNK7c78bLwvsdeMH5-18" edge="1">
          <mxGeometry relative="1" as="geometry" />
        </mxCell>
        <mxCell id="qxSMUEniD4FXr3O8-UIm-71" style="edgeStyle=orthogonalEdgeStyle;rounded=0;orthogonalLoop=1;jettySize=auto;html=1;entryX=0.5;entryY=0;entryDx=0;entryDy=0;" edge="1" parent="1" source="dNxyNK7c78bLwvsdeMH5-18" target="qxSMUEniD4FXr3O8-UIm-16">
          <mxGeometry relative="1" as="geometry">
            <Array as="points">
              <mxPoint x="390" y="440" />
              <mxPoint x="390" y="670" />
              <mxPoint x="185" y="670" />
            </Array>
          </mxGeometry>
        </mxCell>
        <UserObject label="push_content(trap_cx)&lt;br&gt;&lt;i style=&quot;color: gray&quot;&gt;method -&amp;gt; 指针&lt;/i&gt;&lt;br&gt;压入trap上下文" name="Alison Donovan" position="System Admin" location="Office 3" email="me@example.com" placeholders="1" link="https://www.draw.io" id="dNxyNK7c78bLwvsdeMH5-18">
          <mxCell style="label;whiteSpace=wrap;html=1;rounded=0;glass=0;" parent="1" vertex="1">
            <mxGeometry x="410" y="400" width="220" height="80" as="geometry" />
          </mxCell>
        </UserObject>
        <mxCell id="qxSMUEniD4FXr3O8-UIm-8" style="edgeStyle=orthogonalEdgeStyle;rounded=0;orthogonalLoop=1;jettySize=auto;html=1;entryX=0.5;entryY=0;entryDx=0;entryDy=0;" edge="1" parent="1" source="qxSMUEniD4FXr3O8-UIm-7" target="dNxyNK7c78bLwvsdeMH5-12">
          <mxGeometry relative="1" as="geometry" />
        </mxCell>
        <UserObject label="KERNEL_STACK&lt;br&gt;&lt;i style=&quot;color: gray&quot;&gt;object:[KernelStack;app_num]&lt;/i&gt;&lt;br&gt;内核栈单例" name="Tessa Miller" position="CFO" location="Office 1" email="me@example.com" placeholders="1" link="https://www.draw.io" id="qxSMUEniD4FXr3O8-UIm-7">
          <mxCell style="label;whiteSpace=wrap;html=1;rounded=0;glass=0;treeMoving=1;treeFolding=1;" vertex="1" parent="1">
            <mxGeometry x="150" y="170" width="220" height="70" as="geometry" />
          </mxCell>
        </UserObject>
        <UserObject label="UserStack&lt;br&gt;&lt;i style=&quot;color: gray&quot;&gt;struct: [u8;user_stack_size]&lt;/i&gt;&lt;br&gt;用户栈" name="Tessa Miller" position="CFO" location="Office 1" email="me@example.com" placeholders="1" link="https://www.draw.io" id="qxSMUEniD4FXr3O8-UIm-9">
          <mxCell style="label;whiteSpace=wrap;html=1;rounded=0;glass=0;treeMoving=1;treeFolding=1;" vertex="1" parent="1">
            <mxGeometry x="-470" y="270" width="230" height="70" as="geometry" />
          </mxCell>
        </UserObject>
        <mxCell id="qxSMUEniD4FXr3O8-UIm-10" value="" style="endArrow=blockThin;endFill=1;fontSize=11;edgeStyle=elbowEdgeStyle;elbow=vertical;rounded=0;" edge="1" source="qxSMUEniD4FXr3O8-UIm-9" target="qxSMUEniD4FXr3O8-UIm-11" parent="1">
          <mxGeometry relative="1" as="geometry" />
        </mxCell>
        <UserObject label="get_sp()&lt;br&gt;&lt;i style=&quot;color: gray&quot;&gt;method&amp;nbsp;&lt;/i&gt;&lt;i style=&quot;color: gray;&quot;&gt;-&amp;gt; 指针&lt;/i&gt;&lt;br&gt;获得用户栈栈顶指针" name="Edward Morrison" position="Brand Manager" location="Office 2" email="me@example.com" placeholders="1" link="https://www.draw.io" id="qxSMUEniD4FXr3O8-UIm-11">
          <mxCell style="label;whiteSpace=wrap;html=1;rounded=0;glass=0;" vertex="1" parent="1">
            <mxGeometry x="-450" y="400" width="190" height="80" as="geometry" />
          </mxCell>
        </UserObject>
        <mxCell id="qxSMUEniD4FXr3O8-UIm-14" style="edgeStyle=orthogonalEdgeStyle;rounded=0;orthogonalLoop=1;jettySize=auto;html=1;entryX=0.5;entryY=0;entryDx=0;entryDy=0;" edge="1" source="qxSMUEniD4FXr3O8-UIm-15" target="qxSMUEniD4FXr3O8-UIm-9" parent="1">
          <mxGeometry relative="1" as="geometry" />
        </mxCell>
        <UserObject label="USER_STACK&lt;br&gt;&lt;i style=&quot;color: gray&quot;&gt;object&lt;/i&gt;&lt;i style=&quot;color: gray;&quot;&gt;:&lt;/i&gt;&lt;div&gt;&lt;i style=&quot;color: gray&quot;&gt;[UserStack;app_num]&lt;/i&gt;&lt;br&gt;用户栈单例&lt;/div&gt;" name="Tessa Miller" position="CFO" location="Office 1" email="me@example.com" placeholders="1" link="https://www.draw.io" id="qxSMUEniD4FXr3O8-UIm-15">
          <mxCell style="label;whiteSpace=wrap;html=1;rounded=0;glass=0;treeMoving=1;treeFolding=1;" vertex="1" parent="1">
            <mxGeometry x="-465" y="170" width="220" height="70" as="geometry" />
          </mxCell>
        </UserObject>
        <UserObject label="TrapContext&lt;br&gt;&lt;i style=&quot;color: gray&quot;&gt;struct: [usize;reg_num]、sstatus、sepc&lt;/i&gt;&lt;br&gt;trap上下文" name="Tessa Miller" position="CFO" location="Office 1" email="me@example.com" placeholders="1" link="https://www.draw.io" id="qxSMUEniD4FXr3O8-UIm-16">
          <mxCell style="label;whiteSpace=wrap;html=1;rounded=0;glass=0;treeMoving=1;treeFolding=1;" vertex="1" parent="1">
            <mxGeometry x="70" y="710" width="230" height="70" as="geometry" />
          </mxCell>
        </UserObject>
        <mxCell id="qxSMUEniD4FXr3O8-UIm-17" value="" style="endArrow=blockThin;endFill=1;fontSize=11;edgeStyle=elbowEdgeStyle;elbow=vertical;rounded=0;" edge="1" source="qxSMUEniD4FXr3O8-UIm-16" target="qxSMUEniD4FXr3O8-UIm-18" parent="1">
          <mxGeometry relative="1" as="geometry" />
        </mxCell>
        <UserObject label="set_sp(sp)&lt;br&gt;&lt;i style=&quot;color: gray&quot;&gt;method&lt;/i&gt;&lt;br&gt;设置处理器栈指针" name="Edward Morrison" position="Brand Manager" location="Office 2" email="me@example.com" placeholders="1" link="https://www.draw.io" id="qxSMUEniD4FXr3O8-UIm-18">
          <mxCell style="label;whiteSpace=wrap;html=1;rounded=0;glass=0;" vertex="1" parent="1">
            <mxGeometry x="-20" y="836" width="190" height="80" as="geometry" />
          </mxCell>
        </UserObject>
        <mxCell id="qxSMUEniD4FXr3O8-UIm-19" value="" style="endArrow=blockThin;endFill=1;fontSize=11;edgeStyle=elbowEdgeStyle;elbow=vertical;rounded=0;" edge="1" source="qxSMUEniD4FXr3O8-UIm-16" target="qxSMUEniD4FXr3O8-UIm-20" parent="1">
          <mxGeometry relative="1" as="geometry" />
        </mxCell>
        <UserObject label="app_init_context(entry, sp)&lt;br&gt;&lt;i style=&quot;color: gray&quot;&gt;method -&amp;gt; TrapContext&lt;/i&gt;&lt;br&gt;获得应用初始trap上下文&lt;div&gt;{&lt;/div&gt;&lt;div&gt;&lt;span style=&quot;white-space: pre;&quot;&gt;&#x9;&lt;/span&gt;设置用户程序入口(sepc)为entry&lt;/div&gt;&lt;div&gt;&lt;span style=&quot;white-space: pre;&quot;&gt;&#x9;&lt;/span&gt;设置处理器栈指针(sp)为sp&lt;br&gt;&lt;/div&gt;&lt;div&gt;&lt;span style=&quot;white-space: pre;&quot;&gt;&#x9;&lt;/span&gt;&lt;span style=&quot;background-color: initial;&quot;&gt;设置特权级(sstatus)为用户级&lt;/span&gt;&lt;br&gt;&lt;/div&gt;&lt;div&gt;}&lt;/div&gt;" name="Alison Donovan" position="System Admin" location="Office 3" email="me@example.com" placeholders="1" link="https://www.draw.io" id="qxSMUEniD4FXr3O8-UIm-20">
          <mxCell style="label;whiteSpace=wrap;html=1;rounded=0;glass=0;" vertex="1" parent="1">
            <mxGeometry x="210" y="836" width="300" height="136" as="geometry" />
          </mxCell>
        </UserObject>
        <mxCell id="qxSMUEniD4FXr3O8-UIm-70" style="edgeStyle=orthogonalEdgeStyle;rounded=0;orthogonalLoop=1;jettySize=auto;html=1;entryX=0.5;entryY=0;entryDx=0;entryDy=0;exitX=1;exitY=0.5;exitDx=0;exitDy=0;" edge="1" parent="1" source="qxSMUEniD4FXr3O8-UIm-23" target="qxSMUEniD4FXr3O8-UIm-16">
          <mxGeometry relative="1" as="geometry">
            <Array as="points">
              <mxPoint x="390" y="440" />
              <mxPoint x="390" y="670" />
              <mxPoint x="185" y="670" />
            </Array>
          </mxGeometry>
        </mxCell>
        <UserObject label="init_app_cx(app_id)&lt;br&gt;&lt;i style=&quot;color: gray&quot;&gt;function -&amp;gt; 指针&lt;/i&gt;&lt;br&gt;把初始trap上下文压入内核栈" name="Alison Donovan" position="System Admin" location="Office 3" email="me@example.com" placeholders="1" link="https://www.draw.io" id="qxSMUEniD4FXr3O8-UIm-23">
          <mxCell style="label;whiteSpace=wrap;html=1;rounded=0;glass=0;" vertex="1" parent="1">
            <mxGeometry x="150" y="400" width="220" height="80" as="geometry" />
          </mxCell>
        </UserObject>
        <UserObject label="TaskManagerInner&lt;br&gt;&lt;i style=&quot;color: gray&quot;&gt;struct:&amp;nbsp;&lt;/i&gt;&lt;div&gt;&lt;i style=&quot;color: gray&quot;&gt;[TaskControlBlock; app_num]、&lt;/i&gt;&lt;i style=&quot;background-color: initial; color: gray;&quot;&gt;current_task&lt;/i&gt;&lt;div&gt;任务管理器核&lt;/div&gt;&lt;/div&gt;" name="Tessa Miller" position="CFO" location="Office 1" email="me@example.com" placeholders="1" link="https://www.draw.io" id="qxSMUEniD4FXr3O8-UIm-33">
          <mxCell style="label;whiteSpace=wrap;html=1;rounded=0;glass=0;treeMoving=1;treeFolding=1;" vertex="1" parent="1">
            <mxGeometry x="1054" y="260" width="270" height="90" as="geometry" />
          </mxCell>
        </UserObject>
        <mxCell id="qxSMUEniD4FXr3O8-UIm-34" value="" style="endArrow=blockThin;endFill=1;fontSize=11;edgeStyle=elbowEdgeStyle;elbow=vertical;rounded=0;" edge="1" source="qxSMUEniD4FXr3O8-UIm-33" target="qxSMUEniD4FXr3O8-UIm-35" parent="1">
          <mxGeometry relative="1" as="geometry" />
        </mxCell>
        <mxCell id="qxSMUEniD4FXr3O8-UIm-56" style="edgeStyle=orthogonalEdgeStyle;rounded=0;orthogonalLoop=1;jettySize=auto;html=1;entryX=0.5;entryY=0;entryDx=0;entryDy=0;exitX=0;exitY=0.5;exitDx=0;exitDy=0;" edge="1" parent="1" source="qxSMUEniD4FXr3O8-UIm-35" target="qxSMUEniD4FXr3O8-UIm-41">
          <mxGeometry relative="1" as="geometry" />
        </mxCell>
        <mxCell id="qxSMUEniD4FXr3O8-UIm-65" style="edgeStyle=orthogonalEdgeStyle;rounded=0;orthogonalLoop=1;jettySize=auto;html=1;entryX=0.5;entryY=0;entryDx=0;entryDy=0;dashed=1;" edge="1" parent="1" source="qxSMUEniD4FXr3O8-UIm-35" target="qxSMUEniD4FXr3O8-UIm-64">
          <mxGeometry relative="1" as="geometry" />
        </mxCell>
        <mxCell id="qxSMUEniD4FXr3O8-UIm-69" style="edgeStyle=orthogonalEdgeStyle;rounded=0;orthogonalLoop=1;jettySize=auto;html=1;entryX=0;entryY=0.5;entryDx=0;entryDy=0;exitX=0;exitY=0.5;exitDx=0;exitDy=0;" edge="1" parent="1" source="qxSMUEniD4FXr3O8-UIm-35" target="qxSMUEniD4FXr3O8-UIm-68">
          <mxGeometry relative="1" as="geometry">
            <Array as="points">
              <mxPoint x="930" y="420" />
              <mxPoint x="930" y="670" />
              <mxPoint x="1060" y="670" />
              <mxPoint x="1060" y="745" />
            </Array>
          </mxGeometry>
        </mxCell>
        <UserObject label="TaskControlBlock&lt;br&gt;&lt;i style=&quot;color: gray&quot;&gt;struct:&amp;nbsp;&lt;/i&gt;&lt;i style=&quot;background-color: initial; color: gray;&quot;&gt;TaskStatus、&lt;/i&gt;&lt;i style=&quot;background-color: initial; color: rgb(128, 128, 128);&quot;&gt;TaskContext、&lt;/i&gt;&lt;div&gt;&lt;div&gt;&lt;div&gt;任务属性&lt;/div&gt;&lt;/div&gt;&lt;/div&gt;" name="Edward Morrison" position="Brand Manager" location="Office 2" email="me@example.com" placeholders="1" link="https://www.draw.io" id="qxSMUEniD4FXr3O8-UIm-35">
          <mxCell style="label;whiteSpace=wrap;html=1;rounded=0;glass=0;" vertex="1" parent="1">
            <mxGeometry x="1091" y="380" width="196" height="80" as="geometry" />
          </mxCell>
        </UserObject>
        <mxCell id="qxSMUEniD4FXr3O8-UIm-54" style="edgeStyle=orthogonalEdgeStyle;rounded=0;orthogonalLoop=1;jettySize=auto;html=1;entryX=0.5;entryY=0;entryDx=0;entryDy=0;exitX=0;exitY=0.5;exitDx=0;exitDy=0;" edge="1" parent="1" source="qxSMUEniD4FXr3O8-UIm-39" target="qxSMUEniD4FXr3O8-UIm-33">
          <mxGeometry relative="1" as="geometry" />
        </mxCell>
        <mxCell id="qxSMUEniD4FXr3O8-UIm-57" style="edgeStyle=orthogonalEdgeStyle;rounded=0;orthogonalLoop=1;jettySize=auto;html=1;entryX=0.5;entryY=0;entryDx=0;entryDy=0;exitX=0.5;exitY=1;exitDx=0;exitDy=0;" edge="1" parent="1" source="qxSMUEniD4FXr3O8-UIm-39" target="qxSMUEniD4FXr3O8-UIm-55">
          <mxGeometry relative="1" as="geometry" />
        </mxCell>
        <mxCell id="qxSMUEniD4FXr3O8-UIm-59" style="edgeStyle=orthogonalEdgeStyle;rounded=0;orthogonalLoop=1;jettySize=auto;html=1;entryX=0.5;entryY=0;entryDx=0;entryDy=0;" edge="1" parent="1" source="qxSMUEniD4FXr3O8-UIm-39" target="qxSMUEniD4FXr3O8-UIm-58">
          <mxGeometry relative="1" as="geometry" />
        </mxCell>
        <mxCell id="qxSMUEniD4FXr3O8-UIm-61" style="edgeStyle=orthogonalEdgeStyle;rounded=0;orthogonalLoop=1;jettySize=auto;html=1;entryX=0.5;entryY=0;entryDx=0;entryDy=0;exitX=0.5;exitY=1;exitDx=0;exitDy=0;" edge="1" parent="1" source="qxSMUEniD4FXr3O8-UIm-39" target="qxSMUEniD4FXr3O8-UIm-60">
          <mxGeometry relative="1" as="geometry" />
        </mxCell>
        <mxCell id="qxSMUEniD4FXr3O8-UIm-63" style="edgeStyle=orthogonalEdgeStyle;rounded=0;orthogonalLoop=1;jettySize=auto;html=1;entryX=0.5;entryY=0;entryDx=0;entryDy=0;" edge="1" parent="1" source="qxSMUEniD4FXr3O8-UIm-39" target="qxSMUEniD4FXr3O8-UIm-62">
          <mxGeometry relative="1" as="geometry" />
        </mxCell>
        <UserObject label="TaskManager&lt;br&gt;&lt;i style=&quot;color: gray;&quot;&gt;struct: app_num、&lt;/i&gt;&lt;div&gt;&lt;i style=&quot;color: gray;&quot;&gt;TaskManagerInner&lt;/i&gt;&lt;br&gt;任务管理器&lt;/div&gt;" name="Tessa Miller" position="CFO" location="Office 1" email="me@example.com" placeholders="1" link="https://www.draw.io" id="qxSMUEniD4FXr3O8-UIm-39">
          <mxCell style="label;whiteSpace=wrap;html=1;rounded=0;glass=0;treeMoving=1;treeFolding=1;" vertex="1" parent="1">
            <mxGeometry x="1585" y="270" width="270" height="70" as="geometry" />
          </mxCell>
        </UserObject>
        <UserObject label="TaskContext&lt;br&gt;&lt;i style=&quot;color: gray&quot;&gt;struct: [usize;s_reg_num]、ra、sp&lt;/i&gt;&lt;br&gt;任务上下文" name="Tessa Miller" position="CFO" location="Office 1" email="me@example.com" placeholders="1" link="https://www.draw.io" id="qxSMUEniD4FXr3O8-UIm-41">
          <mxCell style="label;whiteSpace=wrap;html=1;rounded=0;glass=0;treeMoving=1;treeFolding=1;" vertex="1" parent="1">
            <mxGeometry x="815" y="710" width="230" height="70" as="geometry" />
          </mxCell>
        </UserObject>
        <mxCell id="qxSMUEniD4FXr3O8-UIm-42" value="" style="endArrow=blockThin;endFill=1;fontSize=11;edgeStyle=elbowEdgeStyle;elbow=vertical;rounded=0;" edge="1" source="qxSMUEniD4FXr3O8-UIm-41" target="qxSMUEniD4FXr3O8-UIm-43" parent="1">
          <mxGeometry relative="1" as="geometry" />
        </mxCell>
        <UserObject label="zero_init()&lt;br&gt;&lt;i style=&quot;color: gray&quot;&gt;method -&amp;gt; TaskContext&lt;/i&gt;&lt;br&gt;获得全为0的初始任务上下文" name="Edward Morrison" position="Brand Manager" location="Office 2" email="me@example.com" placeholders="1" link="https://www.draw.io" id="qxSMUEniD4FXr3O8-UIm-43">
          <mxCell style="label;whiteSpace=wrap;html=1;rounded=0;glass=0;" vertex="1" parent="1">
            <mxGeometry x="640" y="836" width="250" height="80" as="geometry" />
          </mxCell>
        </UserObject>
        <mxCell id="qxSMUEniD4FXr3O8-UIm-44" value="" style="endArrow=blockThin;endFill=1;fontSize=11;edgeStyle=elbowEdgeStyle;elbow=vertical;rounded=0;" edge="1" source="qxSMUEniD4FXr3O8-UIm-41" target="qxSMUEniD4FXr3O8-UIm-45" parent="1">
          <mxGeometry relative="1" as="geometry" />
        </mxCell>
        <UserObject label="goto_restore(kstack_ptr)&lt;br&gt;&lt;i style=&quot;color: gray&quot;&gt;method -&amp;gt; TaskContext&lt;/i&gt;&lt;br&gt;获得朝向__restore的任务上下文&lt;div&gt;&lt;div&gt;{&lt;/div&gt;&lt;div&gt;&lt;span style=&quot;white-space: pre;&quot;&gt;&#x9;&lt;/span&gt;设置函数返回地址(ra)为__restore入口地址&lt;/div&gt;&lt;div&gt;&lt;span style=&quot;white-space: pre;&quot;&gt;&#x9;&lt;/span&gt;设置处理器栈指针(sp)为内核栈指针kstack_ptr&lt;/div&gt;&lt;div&gt;}&lt;/div&gt;&lt;/div&gt;" name="Alison Donovan" position="System Admin" location="Office 3" email="me@example.com" placeholders="1" link="https://www.draw.io" id="qxSMUEniD4FXr3O8-UIm-45">
          <mxCell style="label;whiteSpace=wrap;html=1;rounded=0;glass=0;" vertex="1" parent="1">
            <mxGeometry x="980" y="836" width="350" height="136" as="geometry" />
          </mxCell>
        </UserObject>
        <mxCell id="qxSMUEniD4FXr3O8-UIm-47" style="edgeStyle=orthogonalEdgeStyle;rounded=0;orthogonalLoop=1;jettySize=auto;html=1;entryX=0.5;entryY=0;entryDx=0;entryDy=0;" edge="1" parent="1" source="qxSMUEniD4FXr3O8-UIm-46" target="qxSMUEniD4FXr3O8-UIm-39">
          <mxGeometry relative="1" as="geometry" />
        </mxCell>
        <UserObject label="TASK_MANAGER&lt;br&gt;&lt;i style=&quot;color: gray&quot;&gt;object&lt;/i&gt;&lt;br&gt;任务管理器单例" name="Tessa Miller" position="CFO" location="Office 1" email="me@example.com" placeholders="1" link="https://www.draw.io" id="qxSMUEniD4FXr3O8-UIm-46">
          <mxCell style="label;whiteSpace=wrap;html=1;rounded=0;glass=0;treeMoving=1;treeFolding=1;" vertex="1" parent="1">
            <mxGeometry x="1585" y="170" width="270" height="70" as="geometry" />
          </mxCell>
        </UserObject>
        <UserObject label="run_first_task()&lt;br&gt;&lt;i style=&quot;color: gray&quot;&gt;method -&amp;gt; !&lt;/i&gt;&lt;br&gt;执行第一个任务&lt;div&gt;{&lt;/div&gt;&lt;div&gt;&lt;span style=&quot;white-space: pre;&quot;&gt;&#x9;&lt;/span&gt;设置第0个任务的状态为running&lt;br&gt;&lt;/div&gt;&lt;div&gt;&lt;span style=&quot;white-space: pre;&quot;&gt;&#x9;&lt;/span&gt;&lt;span style=&quot;background-color: initial;&quot;&gt;从&lt;/span&gt;&lt;span style=&quot;background-color: initial;&quot;&gt;空任务切换至第0个任务&lt;/span&gt;&lt;/div&gt;&lt;div&gt;}&lt;/div&gt;" name="Alison Donovan" position="System Admin" location="Office 3" email="me@example.com" placeholders="1" link="https://www.draw.io" id="qxSMUEniD4FXr3O8-UIm-55">
          <mxCell style="label;whiteSpace=wrap;html=1;rounded=0;glass=0;" vertex="1" parent="1">
            <mxGeometry x="1980" y="410" width="355" height="130" as="geometry" />
          </mxCell>
        </UserObject>
        <UserObject label="mark_current_xxx()&lt;br&gt;&lt;i style=&quot;color: gray&quot;&gt;method&lt;/i&gt;&lt;br&gt;设置当前任务的状态" name="Alison Donovan" position="System Admin" location="Office 3" email="me@example.com" placeholders="1" link="https://www.draw.io" id="qxSMUEniD4FXr3O8-UIm-58">
          <mxCell style="label;whiteSpace=wrap;html=1;rounded=0;glass=0;" vertex="1" parent="1">
            <mxGeometry x="1400" y="410" width="230" height="70" as="geometry" />
          </mxCell>
        </UserObject>
        <UserObject label="run_next_task()&lt;br&gt;&lt;i style=&quot;color: gray&quot;&gt;method&lt;/i&gt;&lt;div&gt;执行下一个任务&lt;div&gt;{&lt;/div&gt;&lt;div&gt;&lt;span style=&quot;white-space: pre;&quot;&gt;&#x9;&lt;/span&gt;查找下一个任务编号x&lt;/div&gt;&lt;div&gt;&lt;span style=&quot;white-space: pre;&quot;&gt;&#x9;&lt;/span&gt;&lt;span style=&quot;background-color: initial;&quot;&gt;设置第x个任务的状态为running&lt;/span&gt;&lt;br&gt;&lt;/div&gt;&lt;div&gt;&lt;span style=&quot;white-space: pre;&quot;&gt;&#x9;&lt;/span&gt;从当前任务切换至第x个任务&lt;/div&gt;&lt;div&gt;}&lt;/div&gt;&lt;/div&gt;" name="Alison Donovan" position="System Admin" location="Office 3" email="me@example.com" placeholders="1" link="https://www.draw.io" id="qxSMUEniD4FXr3O8-UIm-60">
          <mxCell style="label;whiteSpace=wrap;html=1;rounded=0;glass=0;" vertex="1" parent="1">
            <mxGeometry x="2400" y="410" width="355" height="130" as="geometry" />
          </mxCell>
        </UserObject>
        <UserObject label="find_next_task()&lt;br&gt;&lt;i style=&quot;color: gray&quot;&gt;method -&amp;gt; option&amp;lt;任务编号&amp;gt;&lt;/i&gt;&lt;br&gt;查找下一个就绪任务" name="Alison Donovan" position="System Admin" location="Office 3" email="me@example.com" placeholders="1" link="https://www.draw.io" id="qxSMUEniD4FXr3O8-UIm-62">
          <mxCell style="label;whiteSpace=wrap;html=1;rounded=0;glass=0;" vertex="1" parent="1">
            <mxGeometry x="1670" y="410" width="230" height="70" as="geometry" />
          </mxCell>
        </UserObject>
        <UserObject label="TASK_MANAGER()&lt;br&gt;&lt;font color=&quot;#808080&quot;&gt;&lt;i&gt;declare object&lt;/i&gt;&lt;/font&gt;&lt;br&gt;设置当前任务属性&lt;div&gt;{&lt;/div&gt;&lt;div&gt;&lt;span style=&quot;white-space: pre;&quot;&gt;&#x9;&lt;/span&gt;TaskStatus：UnInit&lt;br&gt;&lt;/div&gt;&lt;div&gt;&lt;span style=&quot;white-space: pre;&quot;&gt;&#x9;&lt;/span&gt;TaskContext：goto_restore(init_app_cx)&lt;br&gt;&lt;/div&gt;&lt;div&gt;}&lt;/div&gt;" name="Alison Donovan" position="System Admin" location="Office 3" email="me@example.com" placeholders="1" link="https://www.draw.io" id="qxSMUEniD4FXr3O8-UIm-64">
          <mxCell style="label;whiteSpace=wrap;html=1;rounded=0;glass=0;" vertex="1" parent="1">
            <mxGeometry x="1025" y="500" width="328" height="150" as="geometry" />
          </mxCell>
        </UserObject>
        <UserObject label="TaskStatus&lt;br&gt;&lt;i style=&quot;color: gray;&quot;&gt;enum: UnInit、Ready、Running、Exited&lt;/i&gt;&lt;br&gt;任务状态" name="Alison Donovan" position="System Admin" location="Office 3" email="me@example.com" placeholders="1" link="https://www.draw.io" id="qxSMUEniD4FXr3O8-UIm-68">
          <mxCell style="label;whiteSpace=wrap;html=1;rounded=0;glass=0;" vertex="1" parent="1">
            <mxGeometry x="1074" y="710" width="230" height="70" as="geometry" />
          </mxCell>
        </UserObject>
      </root>
    </mxGraphModel>
  </diagram>
</mxfile>
